<svg xmlns="http://www.w3.org/2000/svg" xmlns:xlink="http://www.w3.org/1999/xlink" viewBox="-13334.355 -12788.516 190.454 36.636">
  <defs>
    <style>
      .cls-1 {
        fill: url(#radial-gradient);
      }

      .cls-2 {
        fill: url(#radial-gradient-2);
      }

      .cls-3 {
        fill: url(#radial-gradient-3);
      }

      .cls-4 {
        fill: url(#radial-gradient-4);
      }

      .cls-5 {
        fill: #58595b;
      }
    </style>
    <radialGradient id="radial-gradient" cx="8.42" cy="26.587" r="8.42" gradientUnits="userSpaceOnUse">
      <stop offset="0" stop-color="#9ecd58"/>
      <stop offset="1" stop-color="#8dc63f"/>
    </radialGradient>
    <radialGradient id="radial-gradient-2" cx="52.168" cy="17.831" r="9.169" gradientUnits="userSpaceOnUse">
      <stop offset="0" stop-color="#ec803a"/>
      <stop offset="1" stop-color="#e86d1f"/>
    </radialGradient>
    <radialGradient id="radial-gradient-3" cx="30.642" cy="18.32" r="5.742" gradientUnits="userSpaceOnUse">
      <stop offset="0" stop-color="#f3d13d"/>
      <stop offset="1" stop-color="#f1cb00"/>
    </radialGradient>
    <radialGradient id="radial-gradient-4" cx="22.118" cy="11.229" r="11.23" gradientUnits="userSpaceOnUse">
      <stop offset="0" stop-color="#00aee7"/>
      <stop offset="1" stop-color="#00a4e4"/>
    </radialGradient>
  </defs>
  <g id="Symbol_15_25" data-name="Symbol 15 – 25" transform="translate(-13440 -12858)">
    <g id="Group_1172" data-name="Group 1172" transform="translate(111.902 73.922)">
      <g id="Group_1170" data-name="Group 1170" transform="translate(-6.257 -4.437)">
        <path id="Path_198" data-name="Path 198" class="cls-1" d="M16.808,33.071a1.918,1.918,0,0,1-1.936,1.936H1.936A1.918,1.918,0,0,1,0,33.071V20.136A1.918,1.918,0,0,1,1.936,18.2H14.871a1.918,1.918,0,0,1,1.936,1.936Z" transform="translate(0 -4.103)"/>
        <path id="Path_199" data-name="Path 199" class="cls-2" d="M61.357,25.043a1.918,1.918,0,0,1-1.936,1.936H44.936A1.918,1.918,0,0,1,43,25.043V10.636A1.717,1.717,0,0,1,44.936,8.7H59.42a1.918,1.918,0,0,1,1.936,1.936Z" transform="translate(-9.695 -1.961)"/>
        <path id="Path_200" data-name="Path 200" class="cls-3" d="M36.5,42.656A1.209,1.209,0,0,1,35.334,43.9H25.962A1.209,1.209,0,0,1,24.8,42.656V33.439c0-.7.31-1.239,1.162-1.239h9.372A1.209,1.209,0,0,1,36.5,33.439Z" transform="translate(-5.591 -7.26)"/>
        <path id="Path_201" data-name="Path 201" class="cls-4" d="M31.271,0H12.991A1.848,1.848,0,0,0,10.9,2.091v9.6h6.971a3.8,3.8,0,0,1,3.8,3.8v6.971h9.6a1.848,1.848,0,0,0,2.091-2.091V2.091A1.848,1.848,0,0,0,31.271,0Z" transform="translate(-2.457)"/>
      </g>
      <g id="Group_1171" data-name="Group 1171" transform="translate(53.711 -0.133)">
        <path id="Path_202" data-name="Path 202" class="cls-5" d="M86.794,1A11.291,11.291,0,0,0,75.1,12.755c0,6.682,4.7,11.075,11.694,11.075,6.62,0,11.755-4.578,11.755-11.694C98.549,5.455,93.847,1,86.794,1Zm0,20.108c-4.455,0-7.363-3.4-7.363-8.662,0-5.135,2.846-8.662,7.363-8.662,4.455,0,7.424,3.4,7.424,8.662C94.218,17.643,91.372,21.108,86.794,21.108Z" transform="translate(-75.1 -1)"/>
        <path id="Path_203" data-name="Path 203" class="cls-5" d="M124.971,12a5.869,5.869,0,0,0-5.135,2.846l-.309-2.475H116c.124,4.393.186,6.125.186,10.518,0,4.764,0,7.053-.186,11.694h3.96c-.124-2.289-.186-4.7-.186-6.744a14.219,14.219,0,0,0,2.6.247c5.321,0,8.662-3.774,8.662-8.786C130.973,14.475,128.25,12,124.971,12Zm-2.413,13.673a5.955,5.955,0,0,1-2.722-.495c-.062-.8-.062-2.846-.062-4.7,0-1.176,0-2.475.062-3.4a4.07,4.07,0,0,1,3.589-2.165c2.289,0,3.774,1.609,3.774,5.2S125.281,25.673,122.558,25.673Z" transform="translate(-90.695 -5.194)"/>
        <path id="Path_204" data-name="Path 204" class="cls-5" d="M155.64,19.239c0-4.7-2.846-7.239-6.868-7.239-4.517,0-7.672,3.094-7.672,7.8,0,5.321,3.527,8.229,8.105,8.229a10.083,10.083,0,0,0,6.435-1.918l-.866-2.351a7.941,7.941,0,0,1-4.764,1.485c-2.97,0-4.95-1.485-5.2-4.7H155.64Zm-10.889-.928c.186-2.413,1.547-3.96,3.712-3.96,2.227,0,3.341,1.176,3.589,3.96Z" transform="translate(-100.265 -5.194)"/>
        <path id="Path_205" data-name="Path 205" class="cls-5" d="M181.045,17.568c0-3.527-2.042-5.568-5.012-5.568a6.032,6.032,0,0,0-5.2,2.846l-.309-2.475H167c.124,3.155.186,4.578.186,7.734,0,2.908,0,4.7-.186,7.61h3.96c-.124-2.227-.124-3.527-.124-5.754,0-1.732,0-3.65.124-4.888a4.3,4.3,0,0,1,3.527-2.165c1.609,0,2.66.99,2.784,3.032.062,1.052.062,2.908.062,4.7,0,1.98,0,3.094-.124,5.073h3.9c-.124-2.1-.124-3.217-.124-5.259C180.983,20.786,181.045,19.61,181.045,17.568Z" transform="translate(-110.141 -5.194)"/>
        <path id="Path_206" data-name="Path 206" class="cls-5" d="M226.591,1.6H218.3c.186,4.393.247,6.93.247,11.446,0,4.207-.062,6.62-.247,10.7h7.858c8.353,0,13.3-4.578,13.3-11.879C239.46,5,234.634,1.6,226.591,1.6Zm-.742,18.623h-2.289c-.062-2.042-.062-5.012-.062-7.734s0-5.63.062-7.239h2.475c4.888,0,8.043,2.227,8.043,7.424C234.077,17.377,231.107,20.223,225.848,20.223Z" transform="translate(-129.701 -1.229)"/>
        <path id="Path_207" data-name="Path 207" class="cls-5" d="M274.066,1.6h-4.7c.186,4.393.309,7.8.309,12.312,0,5.073-1.918,6.373-4.7,6.373-3.217,0-5.012-1.485-5.012-6.373,0-4.517,0-7.858.186-12.312H254.7c.186,3.589.247,6.435.247,9.095,0,1.856-.062,3.4-.062,5.2,0,5.506,3.712,8.105,9.528,8.105,5.754,0,9.466-2.784,9.466-8.167,0-1.609-.124-3.4-.124-5.135C273.818,7.973,273.942,5.065,274.066,1.6Z" transform="translate(-143.58 -1.229)"/>
        <path id="Path_208" data-name="Path 208" class="cls-5" d="M198.459,14.2c2.97,0,5.692,0,7.919.124V10.548c-2.227.062-4.95.124-7.919.124,0-1.98,0-3.712.062-5.506,3.032,0,6.187,0,8.167.062V1.7H195.3a1.823,1.823,0,0,0-1.856,1.856v9.528c0,4.207-.062,6.62-.247,10.7h13.117l1.3-3.712c-2.413.124-5.878.124-9.1.124C198.459,18.219,198.459,16.363,198.459,14.2Z" transform="translate(-120.131 -1.267)"/>
      </g>
    </g>
  </g>
</svg>
