<?xml version="1.0" encoding="utf-8"?>
<!-- Generator: Adobe Illustrator 16.0.0, SVG Export Plug-In . SVG Version: 6.00 Build 0)  -->
<!DOCTYPE svg PUBLIC "-//W3C//DTD SVG 1.1//EN" "http://www.w3.org/Graphics/SVG/1.1/DTD/svg11.dtd">
<svg version="1.1" id="Layer_1" xmlns="http://www.w3.org/2000/svg" xmlns:xlink="http://www.w3.org/1999/xlink" x="0px" y="0px"
	 width="357px" height="74px" viewBox="0 0 357 74" enable-background="new 0 0 357 74" xml:space="preserve">
<g>
	<g>
		<defs>
			<rect id="SVGID_1_" width="357" height="74"/>
		</defs>
		<clipPath id="SVGID_2_">
			<use xlink:href="#SVGID_1_"  overflow="visible"/>
		</clipPath>
		<polyline clip-path="url(#SVGID_2_)" fill="#232C65" points="100.992,27.783 93.16,46.575 90.087,46.575 82.229,27.783 
			87.895,27.783 90.541,34.707 91.851,38.77 93.108,34.707 95.593,27.783 100.992,27.783 		"/>
	</g>
	<g>
		<defs>
			<rect id="SVGID_3_" width="357" height="74"/>
		</defs>
		<clipPath id="SVGID_4_">
			<use xlink:href="#SVGID_3_"  overflow="visible"/>
		</clipPath>
		<rect x="104.44" y="27.783" clip-path="url(#SVGID_4_)" fill="#232C65" width="5.132" height="18.792"/>
	</g>
	<g>
		<defs>
			<rect id="SVGID_5_" width="357" height="74"/>
		</defs>
		<clipPath id="SVGID_6_">
			<use xlink:href="#SVGID_5_"  overflow="visible"/>
		</clipPath>
		<polyline clip-path="url(#SVGID_6_)" fill="#232C65" points="130.581,32.274 124.487,32.274 124.487,46.575 119.381,46.575 
			119.381,32.274 113.367,32.274 113.367,27.783 130.581,27.783 130.581,32.274 		"/>
	</g>
	<g>
		<defs>
			<rect id="SVGID_7_" width="357" height="74"/>
		</defs>
		<clipPath id="SVGID_8_">
			<use xlink:href="#SVGID_7_"  overflow="visible"/>
		</clipPath>
		<polyline clip-path="url(#SVGID_8_)" fill="#232C65" points="147.981,42.164 147.981,46.575 134.349,46.575 134.349,27.783 
			147.927,27.783 147.927,32.221 139.401,32.221 139.401,34.893 146.884,34.893 146.884,39.251 139.401,39.251 139.401,42.164 
			147.981,42.164 		"/>
	</g>
	<g>
		<defs>
			<rect id="SVGID_9_" width="357" height="74"/>
		</defs>
		<clipPath id="SVGID_10_">
			<use xlink:href="#SVGID_9_"  overflow="visible"/>
		</clipPath>
		<path clip-path="url(#SVGID_10_)" fill="#232C65" d="M159.313,41.764h-2.192v4.812h-4.998V27.783h7.885
			c4.838,0,7.698,3.047,7.698,7.11c0,2.621-1.336,4.677-3.555,5.854l4.064,5.828h-5.828L159.313,41.764 M157.121,37.514h2.486
			c1.844,0,2.994-1.177,2.994-2.674c0-1.577-1.096-2.806-3.073-2.806h-2.407V37.514z"/>
	</g>
	<g>
		<defs>
			<rect id="SVGID_11_" width="357" height="74"/>
		</defs>
		<clipPath id="SVGID_12_">
			<use xlink:href="#SVGID_11_"  overflow="visible"/>
		</clipPath>
		<path clip-path="url(#SVGID_12_)" fill="#232C65" d="M187.486,41.175c0,3.343-2.141,5.4-7.539,5.4h-8.019V27.783h7.726
			c5.051,0,7.109,2.112,7.109,5.079c0,1.817-1.15,3.235-2.969,3.822C186.496,37.273,187.486,39.143,187.486,41.175 M179.546,31.632
			h-2.726v3.663h2.753c1.577,0,2.378-0.669,2.378-1.845C181.951,32.354,181.123,31.632,179.546,31.632z M182.594,40.802
			c0-1.257-0.803-1.872-2.619-1.872h-3.155v3.795h3.155C181.738,42.725,182.594,41.977,182.594,40.802z"/>
	</g>
	<g>
		<defs>
			<rect id="SVGID_13_" width="357" height="74"/>
		</defs>
		<clipPath id="SVGID_14_">
			<use xlink:href="#SVGID_13_"  overflow="visible"/>
		</clipPath>
		<path clip-path="url(#SVGID_14_)" fill="#232C65" d="M190.13,37.112c0-5.533,4.304-9.756,10.132-9.756
			c5.772,0,10.022,4.09,10.022,9.756c0,5.613-4.25,9.783-10.022,9.783C194.434,46.895,190.13,42.618,190.13,37.112 M205.072,37.112
			c0-3.021-2.032-5.132-4.812-5.132c-2.834,0-4.919,2.139-4.919,5.132c0,2.94,2.085,5.16,4.919,5.16
			C203.04,42.271,205.072,40.079,205.072,37.112z"/>
	</g>
	<g>
		<defs>
			<rect id="SVGID_15_" width="357" height="74"/>
		</defs>
		<clipPath id="SVGID_16_">
			<use xlink:href="#SVGID_15_"  overflow="visible"/>
		</clipPath>
		<path clip-path="url(#SVGID_16_)" fill="#232C65" d="M214.825,39.396V28.331c0-0.183,0.104-0.288,0.288-0.288h1.277
			c0.184,0,0.287,0.105,0.287,0.288v11.041c0,3.521,1.774,5.507,4.727,5.507c2.974,0,4.75-1.984,4.75-5.507V28.331
			c0-0.183,0.104-0.288,0.287-0.288h1.252c0.182,0,0.261,0.105,0.261,0.288v11.015c0,4.541-2.506,7.229-6.55,7.229
			C217.384,46.575,214.825,43.887,214.825,39.396"/>
	</g>
	<g>
		<defs>
			<rect id="SVGID_17_" width="357" height="74"/>
		</defs>
		<clipPath id="SVGID_18_">
			<use xlink:href="#SVGID_17_"  overflow="visible"/>
		</clipPath>
		<path clip-path="url(#SVGID_18_)" fill="#232C65" d="M233.15,46.027V28.331c0-0.183,0.104-0.288,0.287-0.288h1.045
			c0.209,0,0.312,0.131,0.416,0.288l8.666,13.128l0.86,1.516V28.331c0-0.183,0.104-0.288,0.287-0.288h1.306
			c0.183,0,0.262,0.105,0.262,0.288v17.696c0,0.183-0.079,0.287-0.262,0.287H245c-0.234,0-0.34-0.133-0.418-0.287l-8.691-13.181
			l-0.887-1.514v14.695c0,0.183-0.104,0.287-0.287,0.287h-1.277C233.255,46.314,233.15,46.21,233.15,46.027"/>
	</g>
	<g>
		<defs>
			<rect id="SVGID_19_" width="357" height="74"/>
		</defs>
		<clipPath id="SVGID_20_">
			<use xlink:href="#SVGID_19_"  overflow="visible"/>
		</clipPath>
		<path clip-path="url(#SVGID_20_)" fill="#232C65" d="M251.686,46.027V28.331c0-0.183,0.104-0.288,0.287-0.288h1.277
			c0.184,0,0.287,0.105,0.287,0.288v17.696c0,0.183-0.104,0.287-0.287,0.287h-1.277C251.789,46.314,251.686,46.21,251.686,46.027"/>
	</g>
	<g>
		<defs>
			<rect id="SVGID_21_" width="357" height="74"/>
		</defs>
		<clipPath id="SVGID_22_">
			<use xlink:href="#SVGID_21_"  overflow="visible"/>
		</clipPath>
		<path clip-path="url(#SVGID_22_)" fill="#232C65" d="M272.279,28.331l-6.787,17.696c-0.053,0.183-0.184,0.287-0.365,0.287h-1.044
			c-0.21,0-0.313-0.104-0.392-0.262l-6.787-17.723c-0.053-0.131-0.053-0.183,0-0.235c0.054-0.053,0.158-0.053,0.234-0.053h1.516
			c0.156,0,0.234,0.105,0.312,0.288l5.299,14.146l0.393,1.409l0.365-1.409l5.271-14.146c0.053-0.183,0.131-0.288,0.314-0.288h1.461
			c0.104,0,0.154,0.027,0.209,0.079C272.33,28.148,272.33,28.2,272.279,28.331"/>
	</g>
	<g>
		<defs>
			<rect id="SVGID_23_" width="357" height="74"/>
		</defs>
		<clipPath id="SVGID_24_">
			<use xlink:href="#SVGID_23_"  overflow="visible"/>
		</clipPath>
		<path clip-path="url(#SVGID_24_)" fill="#232C65" d="M277.475,29.714v6.134h7.308c0.183,0,0.288,0.078,0.288,0.287v1.097
			c0,0.183-0.105,0.286-0.288,0.286h-7.308v7.125h8.612c0.156,0,0.261,0.08,0.261,0.289v1.096c0,0.184-0.104,0.287-0.261,0.287
			h-10.179c-0.184,0-0.287-0.104-0.287-0.287V28.331c0-0.183,0.104-0.288,0.287-0.288h10.179c0.156,0,0.261,0.105,0.261,0.288v1.096
			c0,0.209-0.104,0.287-0.261,0.287H277.475"/>
	</g>
	<g>
		<defs>
			<rect id="SVGID_25_" width="357" height="74"/>
		</defs>
		<clipPath id="SVGID_26_">
			<use xlink:href="#SVGID_25_"  overflow="visible"/>
		</clipPath>
		<path clip-path="url(#SVGID_26_)" fill="#232C65" d="M302.532,46.314h-1.54c-0.184,0-0.26-0.078-0.312-0.235l-3.314-7.101
			c-0.234-0.494-0.471-0.627-0.861-0.627h-4.201v7.676c0,0.183-0.104,0.287-0.287,0.287h-1.277c-0.184,0-0.288-0.104-0.288-0.287
			V28.331c0-0.183,0.104-0.288,0.288-0.288h5.949c3.42,0,5.689,1.984,5.689,5.117c0,2.505-1.41,4.28-3.654,4.933
			c0.209,0.104,0.393,0.339,0.549,0.704l3.393,7.258C302.741,46.21,302.715,46.314,302.532,46.314 M296.609,36.735
			c2.295,0,3.836-1.383,3.836-3.497c0-2.141-1.541-3.524-3.836-3.524h-4.31v7.021H296.609z"/>
	</g>
	<g>
		<defs>
			<rect id="SVGID_27_" width="357" height="74"/>
		</defs>
		<clipPath id="SVGID_28_">
			<use xlink:href="#SVGID_27_"  overflow="visible"/>
		</clipPath>
		<path clip-path="url(#SVGID_28_)" fill="#232C65" d="M305.379,41.407c-0.025-0.209,0.079-0.261,0.262-0.261h1.357
			c0.157,0,0.235,0.076,0.287,0.261c0.157,0.913,0.547,1.618,1.07,2.166c0.86,0.888,2.14,1.306,3.55,1.306
			c2.348,0,3.938-1.148,3.938-3.186c0-2.219-2.035-3.133-4.385-3.992c-1.486-0.574-2.923-1.07-3.967-2.036
			c-0.783-0.731-1.305-1.749-1.305-3.132c0-2.923,2.243-4.75,5.401-4.75c3.289,0,5.481,1.879,5.82,5.142
			c0.025,0.182-0.052,0.26-0.235,0.26h-1.354c-0.185,0-0.264-0.078-0.288-0.26c-0.13-1.175-0.602-2.089-1.409-2.689
			c-0.627-0.495-1.513-0.757-2.532-0.757c-2.061,0-3.472,1.148-3.472,2.924c0,2.14,1.982,2.844,4.098,3.628
			c2.637,0.992,5.562,2.062,5.562,5.559c0,3.133-2.323,4.985-5.82,4.985C308.406,46.575,305.771,44.67,305.379,41.407"/>
	</g>
	<g>
		<defs>
			<rect id="SVGID_29_" width="357" height="74"/>
		</defs>
		<clipPath id="SVGID_30_">
			<use xlink:href="#SVGID_29_"  overflow="visible"/>
		</clipPath>
		<path clip-path="url(#SVGID_30_)" fill="#232C65" d="M322.033,46.027V28.331c0-0.183,0.104-0.288,0.288-0.288h1.276
			c0.184,0,0.287,0.105,0.287,0.288v17.696c0,0.183-0.104,0.287-0.287,0.287h-1.276C322.138,46.314,322.033,46.21,322.033,46.027"/>
	</g>
</g>
<g>
	<g>
		<defs>
			<rect id="SVGID_31_" x="0.06" y="0.421" width="356.261" height="73.579"/>
		</defs>
		<clipPath id="SVGID_32_">
			<use xlink:href="#SVGID_31_"  overflow="visible"/>
		</clipPath>
		<g clip-path="url(#SVGID_32_)">
			<g>
				<defs>
					<rect id="SVGID_33_" width="357" height="74"/>
				</defs>
				<defs>
					<rect id="SVGID_34_" width="357" height="74"/>
				</defs>
				<defs>
					<rect id="SVGID_35_" width="357" height="74"/>
				</defs>
				<defs>
					<rect id="SVGID_36_" width="357" height="74"/>
				</defs>
				<clipPath id="SVGID_37_">
					<use xlink:href="#SVGID_33_"  overflow="visible"/>
				</clipPath>
				<clipPath id="SVGID_38_" clip-path="url(#SVGID_37_)">
					<use xlink:href="#SVGID_34_"  overflow="visible"/>
				</clipPath>
				<clipPath id="SVGID_39_" clip-path="url(#SVGID_38_)">
					<use xlink:href="#SVGID_35_"  overflow="visible"/>
				</clipPath>
				<clipPath id="SVGID_40_" clip-path="url(#SVGID_39_)">
					<use xlink:href="#SVGID_36_"  overflow="visible"/>
				</clipPath>
				<path clip-path="url(#SVGID_40_)" fill="#232C65" d="M340.331,28.331v1.096c0,0.209-0.079,0.287-0.261,0.287h-5.352v16.313
					c0,0.183-0.104,0.287-0.287,0.287h-1.277c-0.209,0-0.288-0.104-0.288-0.287V29.714h-5.271c-0.183,0-0.287-0.078-0.287-0.287
					v-1.096c0-0.183,0.104-0.288,0.287-0.288h12.477C340.252,28.043,340.331,28.148,340.331,28.331"/>
				<path clip-path="url(#SVGID_40_)" fill="#232C65" d="M356.28,28.331l-6.368,10.44v7.256c0,0.183-0.079,0.287-0.261,0.287h-1.279
					c-0.183,0-0.287-0.104-0.287-0.287v-7.31l-6.343-10.388c-0.129-0.209,0.079-0.288,0.209-0.288h1.539
					c0.184,0,0.262,0.105,0.367,0.288l4.617,7.412l0.602,1.227l0.548-1.227l4.568-7.412c0.104-0.183,0.209-0.288,0.363-0.288h1.516
					C356.28,28.043,356.384,28.174,356.28,28.331"/>
				<path clip-path="url(#SVGID_40_)" fill="#FFFFFF" d="M36.967,6.308C19.624,6.283,6.279,20.122,5.895,36.454
					c-0.408,17.323,13.503,31.651,30.91,31.66c17.026,0.005,30.886-13.839,30.889-30.874C67.696,20.23,53.887,6.335,36.967,6.308"/>
				<path clip-path="url(#SVGID_40_)" fill="#A51E36" d="M37.001,0.421C16.354,0.392,0.468,16.867,0.011,36.31
					C-0.476,56.934,16.086,73.991,36.808,74c20.268,0.006,36.769-16.475,36.772-36.754C73.583,16.995,57.144,0.453,37.001,0.421
					 M45.707,27.859h5.329v3.143l-5.329,7.613V27.859z M34.492,11.944c0.053-0.575,1.94,3.857,0.093,4.877
					c-2.217,1.223-0.501,3.793,1.003,5.538c-0.301-0.711-0.566-1.477-0.554-1.88c0.012-0.559,0.239-1.671,0.807-1.864
					c1.18-0.396,0.466-2.931,0.769-2.631c2.891,2.861,2.346,5.11,1.384,6.471h0.114c1.46-1.547,2.853-4.111,1.381-6.756
					c-0.653-1.174-1.949-1.789-2.57-2.313c-0.623-0.521-0.711-1.393,0.073-2.354c0.781-0.959,1.098-2.718,1.098-2.718
					c0.242,2.068,3.567,4.617,4.257,5.573c0.694,0.958,1.577,2.564,0.866,5.433c-0.364,1.477-1.061,2.456-1.815,3.135h4.12
					l-1.294,2.849l-14.846-0.012l-1.337-2.837h4.595C27.269,17.657,34.314,13.831,34.492,11.944z M42.998,42.924l-6.206,8.579
					l-6.207-8.579l0.05-15.069h12.313L42.998,42.924z M22.54,27.859h5.332v10.756l-5.332-7.613V27.859z M22.543,51.923v-4.229
					c3.377,4.805,6.961,9.929,9.944,14.24C22.109,59.955,22.543,51.923,22.543,51.923z M41.091,61.934
					c2.984-4.312,6.568-9.437,9.945-14.24v4.229C51.036,51.923,51.47,59.955,41.091,61.934z M36.785,64.35L11.406,27.859h6.029
					L36.791,55.6l19.353-27.741h6.029L36.785,64.35z"/>
			</g>
		</g>
		<g clip-path="url(#SVGID_32_)">
			<g>
				<defs>
					<rect id="SVGID_41_" width="357" height="74"/>
				</defs>
				<clipPath id="SVGID_42_">
					<use xlink:href="#SVGID_41_"  overflow="visible"/>
				</clipPath>
				<polyline clip-path="url(#SVGID_42_)" fill="#A51E36" points="36.791,48.095 39.209,44.052 34.371,44.052 36.791,48.095 				"/>
			</g>
			<g>
				<defs>
					<rect id="SVGID_43_" width="357" height="74"/>
				</defs>
				<clipPath id="SVGID_44_">
					<use xlink:href="#SVGID_43_"  overflow="visible"/>
				</clipPath>
				<path clip-path="url(#SVGID_44_)" fill="#A51E36" d="M33.324,34.237h1.904c0.142,0.22,0.329,0.406,0.549,0.549v6.505h2.026
					v-6.505c0.22-0.143,0.407-0.329,0.55-0.549h1.903V32.21h-1.903c-0.143-0.219-0.33-0.406-0.55-0.549v-1.442h-2.026v1.442
					c-0.22,0.143-0.407,0.33-0.549,0.549h-1.904V34.237 M35.945,33.224c0-0.467,0.378-0.845,0.845-0.845s0.845,0.378,0.845,0.845
					c0,0.466-0.378,0.845-0.845,0.845S35.945,33.69,35.945,33.224z"/>
			</g>
		</g>
	</g>
</g>
</svg>
