<?xml version="1.0" encoding="utf-8"?>
<!-- Generator: Adobe Illustrator 16.0.0, SVG Export Plug-In . SVG Version: 6.00 Build 0)  -->
<!DOCTYPE svg PUBLIC "-//W3C//DTD SVG 1.1//EN" "http://www.w3.org/Graphics/SVG/1.1/DTD/svg11.dtd">
<svg version="1.1" id="Layer_1" xmlns="http://www.w3.org/2000/svg" xmlns:xlink="http://www.w3.org/1999/xlink" x="0px" y="0px"
	 width="250.15px" height="93.86px" viewBox="0 -4 250.15 93.86" enable-background="new 0 -4 250.15 93.86" xml:space="preserve">
<g>
	<ellipse fill="#FFFFFF" stroke="#000000" stroke-miterlimit="10" cx="117.983" cy="26.993" rx="21.608" ry="22.47"/>
	<g>
		<g>
			<g>
				<defs>
					<rect id="SVGID_1_" x="90.989" y="0.548" width="53.989" height="52.842"/>
				</defs>
				<clipPath id="SVGID_2_">
					<use xlink:href="#SVGID_1_"  overflow="visible"/>
				</clipPath>
				<path clip-path="url(#SVGID_2_)" fill="#A51D37" d="M118.131,1.777L118.131,1.777c-14.439-0.028-25.548,11.259-25.867,24.563
					c-0.337,14.121,11.241,25.802,25.735,25.802c14.167,0.008,25.708-11.277,25.708-25.16
					C143.716,13.117,132.212,1.796,118.131,1.777 M124.215,20.559L124.215,20.559h3.731v2.147l-3.731,5.212V20.559z M116.376,9.659
					L116.376,9.659c0.038-0.395,1.359,2.643,0.066,3.34c-1.557,0.835-0.356,2.597,0.703,3.79c-0.215-0.486-0.403-1.009-0.394-1.284
					c0.009-0.386,0.169-1.147,0.572-1.275c0.826-0.267,0.318-2.009,0.534-1.798c2.026,1.954,1.641,3.496,0.966,4.432h0.084
					c1.013-1.064,1.988-2.817,0.966-4.635c-0.459-0.798-1.369-1.22-1.801-1.578c-0.44-0.359-0.496-0.955,0.047-1.616
					c0.554-0.651,0.769-1.862,0.769-1.862c0.169,1.422,2.494,3.166,2.981,3.816c0.487,0.66,1.097,1.762,0.6,3.726
					c-0.252,1.009-0.74,1.679-1.265,2.147h2.878l-0.899,1.945l-10.388-0.009l-0.928-1.936h3.206
					C111.324,13.577,116.255,10.952,116.376,9.659 M122.34,30.872L122.34,30.872l-4.36,5.873l-4.322-5.826V20.559h8.653
					L122.34,30.872z M108.014,20.559L108.014,20.559h3.731v7.359l-3.731-5.212V20.559z M108.023,37.03L108.023,37.03v-2.89
					c2.363,3.285,4.866,6.791,6.947,9.745C107.714,42.527,108.023,37.03,108.023,37.03 M120.99,43.885L120.99,43.885
					c2.09-2.956,4.594-6.46,6.956-9.745v2.89C127.946,37.03,128.247,42.527,120.99,43.885 M117.98,45.535L117.98,45.535
					l-17.747-24.976h4.219l13.528,18.993l13.539-18.993h4.219L117.98,45.535z"/>
			</g>
		</g>
	</g>
	<g>
		<g>
			<g>
				<defs>
					<rect id="SVGID_3_" x="90.989" y="0.548" width="53.989" height="52.842"/>
				</defs>
				<clipPath id="SVGID_4_">
					<use xlink:href="#SVGID_3_"  overflow="visible"/>
				</clipPath>
				<polygon clip-path="url(#SVGID_4_)" fill="#A51D37" points="118.008,34.415 118.008,34.415 119.678,31.644 116.293,31.644 				
					"/>
			</g>
		</g>
	</g>
	<g>
		<g>
			<g>
				<defs>
					<rect id="SVGID_5_" x="90.989" y="0.548" width="53.989" height="52.842"/>
				</defs>
				<clipPath id="SVGID_6_">
					<use xlink:href="#SVGID_5_"  overflow="visible"/>
				</clipPath>
				<path clip-path="url(#SVGID_6_)" fill="#A51D37" d="M118.73,23.156L118.73,23.156v-0.983h-1.416v0.992
					c-0.15,0.102-0.272,0.22-0.375,0.366h-1.34v1.395h1.34c0.094,0.147,0.225,0.275,0.375,0.366v4.461h1.416v-4.451
					c0.159-0.1,0.291-0.229,0.394-0.375h1.322v-1.395h-1.322C119.021,23.385,118.889,23.257,118.73,23.156 M118.037,24.808
					L118.037,24.808c-0.328,0-0.59-0.257-0.59-0.578c0-0.322,0.262-0.578,0.59-0.578c0.329,0,0.591,0.256,0.591,0.578
					C118.627,24.551,118.365,24.808,118.037,24.808"/>
			</g>
		</g>
	</g>
</g>
<polyline fill="#FFFFFF" points="10.764,61.018 16.756,75.833 19.072,75.833 25.026,61.018 20.911,61.018 20.911,61.018 
	19.033,66.476 18.074,69.678 17.076,66.476 15.079,61.018 10.764,61.018 "/>
<polygon fill="#FFFFFF" points="27.901,75.833 27.901,75.833 31.776,75.833 31.776,61.018 27.901,61.018 "/>
<polygon fill="#FFFFFF" points="47.994,61.018 47.994,61.018 34.892,61.018 34.892,64.548 39.486,64.548 39.486,75.833 
	43.36,75.833 43.36,64.548 47.994,64.548 "/>
<polygon fill="#FFFFFF" points="54.945,72.386 54.945,72.386 54.945,70.088 60.617,70.088 60.617,66.641 54.945,66.641 
	54.945,64.507 61.416,64.507 61.416,61.018 51.11,61.018 51.11,75.833 61.455,75.833 61.455,72.386 "/>
<path fill="#FFFFFF" d="M69.205,68.734L69.205,68.734v-4.392h1.358c1.558,0,2.477,1.026,2.477,2.216
	c0,1.231-0.958,2.175-2.437,2.175L69.205,68.734L69.205,68.734z M76.994,72.961L76.994,72.961c-1.398,0-1.558-1.025-2.836-1.846
	c1.678-0.944,2.716-2.627,2.716-4.638c0-3.202-2.356-5.459-6.07-5.459h-5.313v14.815h3.715v-3.816h0.559
	c1.52,0.082,2.397,4.227,6.154,4.227c1.117,0,1.677-0.329,1.677-0.329v-2.996C77.394,72.961,77.195,72.961,76.994,72.961"/>
<path fill="#FFFFFF" d="M87.42,72.797L87.42,72.797h-2.397v-2.996h2.397c1.399,0,1.997,0.492,1.997,1.477
	C89.417,72.223,88.778,72.797,87.42,72.797 M88.938,65.492L88.938,65.492c0,0.944-0.639,1.437-1.838,1.437h-2.078v-2.873H87.1
	C88.299,64.056,88.938,64.629,88.938,65.492 M90.336,68.036L90.336,68.036c1.357-0.451,2.237-1.559,2.237-2.996
	c0-2.338-1.559-4.022-5.394-4.022h-5.871v14.815h6.071c4.115,0,5.753-1.6,5.753-4.228C93.133,69.965,92.374,68.488,90.336,68.036"/>
<path fill="#FFFFFF" d="M103.798,72.468L103.798,72.468c-2.157,0-3.755-1.763-3.755-4.103c0-2.339,1.597-4.022,3.755-4.022
	c2.117,0,3.675,1.642,3.675,4.022C107.473,70.705,105.915,72.468,103.798,72.468 M103.798,76.121L103.798,76.121
	c4.395,0,7.629-3.324,7.629-7.757c0-4.474-3.235-7.674-7.629-7.674c-4.434,0-7.71,3.324-7.71,7.674
	C96.088,72.716,99.363,76.121,103.798,76.121"/>
<text transform="matrix(1.5683 0 0 1 117.9829 75.6428)" fill="#FFFFFF" font-family="'MyriadPro-Cond'" font-size="21.3582">UNIVERSITY</text>
</svg>
