<svg version="1.1" id="Layer_1" xmlns="http://www.w3.org/2000/svg" xmlns:xlink="http://www.w3.org/1999/xlink" x="0px" y="0px"
	 viewBox="0 0 32.3 32.6" style="enable-background:new 0 0 32.3 32.6;" xml:space="preserve">
<style type="text/css">
<![CDATA[
	.st0{fill:#FFFFFF;}
]]>
</style>
<path id="magnifier-icon" class="st0" d="M32.3,28.3l-8.6-8.6c1.3-2,2-4.3,2-6.9C25.7,5.8,19.9,0,12.9,0S0,5.8,0,12.9
	c0,7.1,5.8,12.9,12.9,12.9c2.4,0,4.6-0.7,6.6-1.8l8.7,8.7L32.3,28.3z M4.8,12.9c0-4.4,3.6-8.1,8.1-8.1c4.4,0,8.1,3.6,8.1,8.1
	c0,4.4-3.6,8.1-8.1,8.1C8.4,20.9,4.8,17.3,4.8,12.9z"/>
</svg>
