<?xml version="1.0" encoding="utf-8"?>
<!-- Generator: Adobe Illustrator 16.0.0, SVG Export Plug-In . SVG Version: 6.00 Build 0)  -->
<!DOCTYPE svg PUBLIC "-//W3C//DTD SVG 1.1//EN" "http://www.w3.org/Graphics/SVG/1.1/DTD/svg11.dtd">
<svg version="1.1" id="Layer_1" xmlns="http://www.w3.org/2000/svg" xmlns:xlink="http://www.w3.org/1999/xlink" x="0px" y="0px"
	 width="368.667px" height="131.333px" viewBox="0 0 368.667 131.333" enable-background="new 0 0 368.667 131.333"
	 xml:space="preserve">
<path fill="#772543" d="M129.459,90.1c-0.266-2.876-1.385-5.061-2.29-7.617l-5.22-14.382c-3.303-9.163-3.037-11.879-8.843-11.879
	v-1.598c0.959,0,3.782,0.266,8.417,0.266c3.249,0,8.363-0.266,9.748-0.267v1.598c-2.93,0-5.913,0.16-5.913,2.397
	c0,1.544,1.385,4.9,2.983,9.268l5.167,14.17l6.073-15.395c1.385-3.516,2.237-5.54,2.237-7.99c0-2.078-3.462-2.45-5.487-2.45v-1.598
	c0.746,0,5.966,0.266,7.564,0.266c1.758,0,5.486-0.266,6.925-0.267v1.598c-2.557,0-4.208,1.012-7.83,9.535l-7.031,16.513
	c-1.811,4.314-2.504,5.912-2.557,8.789L129.459,90.1z"/>
<path fill="#772543" d="M155.667,88.768c2.237-0.372,5.859,0,5.859-5.167V61.389c0-5.167-3.622-4.794-5.859-5.167v-1.598
	c2.237,0,5.859,0.266,8.949,0.266c3.143,0,6.765-0.266,9.002-0.267v1.598c-2.237,0.373-5.859,0-5.859,5.167v22.212
	c0,5.167,3.622,4.795,5.859,5.167l0,1.599c-2.237,0-5.859-0.267-9.002-0.267c-3.089,0-6.711,0.267-8.949,0.267V88.768z"/>
<path fill="#772543" d="M184.218,88.768c2.664-0.372,6.925,0,6.925-5.167V61.389c0-4.368-0.32-4.475-3.196-4.475
	c-7.351,0-8.043,4.261-9.428,8.683h-2.024c0.533-4.421,0.853-7.937,0.853-12.305c1.917,1.598,7.031,1.598,16.885,1.598
	c9.854,0,15.021,0,16.939-1.598c0,4.368,0.319,7.883,0.853,12.305H210c-1.332-4.421-2.077-8.683-9.429-8.683
	c-2.876,0-3.195,0.106-3.195,4.475v22.212c0,5.167,4.261,4.795,6.925,5.167l-0.001,1.599c-2.45,0-6.604-0.267-10.067-0.267
	c-3.409,0-7.457,0.267-10.014,0.267V88.768z"/>
<path fill="#772543" d="M214.953,88.768c2.237-0.372,5.859,0,5.859-5.167V61.389c0-5.167-3.622-4.794-5.859-5.167v-1.598
	c1.119,0,2.61,0.053,4.155,0.106c1.598,0.106,3.249,0.16,4.794,0.16h13.37c6.072,0,6.552-0.426,7.83-1.598
	c0,3.941,0.319,7.99,0.746,11.879h-1.918c-1.438-4.688-2.131-8.257-10.92-8.257c-5.007,0-5.966,0.16-5.966,4.475v9.056h2.557
	c6.925,0,6.979-1.758,7.83-5.807l1.599,0c0,0.906-0.267,4.048-0.267,6.818c0,3.249,0.267,5.434,0.267,7.138h-1.599
	c-0.692-3.889-0.905-6.126-7.83-6.126h-2.557v11.133c0,4.155,3.676,4.475,5.966,4.475c7.83,0,10.174-2.29,12.784-10.547h1.918
	c-0.586,4.581-1.332,9.216-1.812,13.637c-0.745-0.426-1.172-0.692-2.45-0.853c-1.278-0.159-3.462-0.213-7.884-0.213h-11.665
	c-1.545,0-3.196,0.054-4.794,0.106c-1.545,0.106-3.036,0.16-4.155,0.16V88.768z"/>
<path fill="#772543" d="M262.734,61.389c0-5.007,1.971-5.007,5.859-5.007c3.568,0,5.593,2.077,5.593,6.019
	c0,5.646-3.196,8.683-9.748,8.683h-1.704V61.389z M250.642,90.366c2.237,0,5.859-0.267,8.948-0.267c3.143,0,6.765,0.267,9.002,0.267
	l0.001-1.599c-2.237-0.372-5.859,0-5.859-5.167V73.107c1.758,0.053,4.367,0,5.166,1.118c4.795,6.712,5.913,10.761,10.813,14.276
	c2.291,1.651,7.671,1.864,10.601,1.864v-1.599c-5.699-1.544-8.949-7.031-16.406-17.259c5.273-1.331,8.31-4.794,8.31-9.108
	c0-4.847-2.823-7.777-9.801-7.777c-3.144,0-7.512,0.267-11.826,0.267c-3.089,0-6.711-0.266-8.948-0.266v1.598
	c2.237,0.373,5.859,0,5.859,5.167v22.212c0,5.167-3.622,4.795-5.859,5.167V90.366z"/>
<path fill="#772543" d="M304.016,71.775h2.717c6.285,0,10.6,1.971,10.6,8.044c0,5.273-2.396,8.522-7.563,8.522
	c-5.54,0-5.753-2.504-5.753-4.741V71.775z M291.924,90.366c2.237,0,5.859-0.267,8.949-0.267c3.302,0,6.125,0.267,9.801,0.267
	c9.375,0,13.689-4.528,13.689-10.388c0-7.617-7.138-9.108-12.092-9.108v-0.746c4.422,0,9.962-2.557,9.962-8.469
	c0-4.155-3.569-7.031-9.642-7.031c-2.61,0-7.99,0.267-11.719,0.267c-3.09,0-6.712-0.266-8.949-0.266v1.598
	c2.237,0.373,5.859,0,5.859,5.167v22.212c0,5.167-3.622,4.795-5.859,5.167V90.366z M304.016,61.389c0-3.569,0.853-4.741,4.74-4.741
	c4.315,0,6.446,2.184,6.446,5.22c0,7.777-5.594,7.618-11.187,7.777V61.389z"/>
<path fill="#772543" d="M335.603,72.521c0-10.228,3.942-16.247,11.08-16.247c8.043,0,11.026,7.458,11.026,16.247
	c0,8.735-2.983,16.193-11.026,16.193C339.545,88.715,335.603,82.695,335.603,72.521z M346.683,91.059
	c9.694,0,18.058-6.818,18.058-18.537c0-11.772-8.363-18.59-18.058-18.59c-9.908,0-18.111,6.072-18.111,18.59
	C328.572,84.986,336.775,91.059,346.683,91.059z"/>
<path fill="#772543" d="M167.997,116.789c-0.163,4.383-2.722,6.534-7.133,6.534c-5.064,0-7.079-2.232-7.079-6.534v-8.63
	c0-2.642-1.851-2.451-2.995-2.642v-0.816c1.144,0,2.995,0.137,4.574,0.137c1.606,0,3.458-0.137,4.601-0.137v0.816
	c-1.144,0.19-2.995,0-2.995,2.642v8.63c0,3.076,1.77,5.063,4.438,5.063c4.193,0,5.309-2.068,5.309-6.425v-7.269
	c0-2.642-1.852-2.451-2.995-2.642l0-0.816c0.953,0,2.45,0.137,3.757,0.137c1.334,0,2.831-0.137,3.784-0.137v0.816
	c-1.144,0.19-2.995,0-2.995,2.642L167.997,116.789z"/>
<path fill="#772543" d="M172.843,122.152c2.777-0.518,3.104-1.688,3.104-8.902v-4.465c0-2.777-0.381-3.022-3.104-3.268v-0.816
	c0.599,0.055,1.47,0.108,2.314,0.108c0.844,0.027,1.633,0.027,2.096,0.027s0.871-0.19,1.334-0.463
	c0.735,1.308,2.178,3.077,3.294,4.465l7.405,9.394h0.055v-4.274c0-8.195-1.062-7.813-4.193-8.44v-0.816
	c0.79,0,2.913,0.137,4.301,0.137c1.552,0,3.349-0.137,4.166-0.137v0.816c-2.777,0.49-3.104,1.634-3.104,8.604v5.771
	c0,1.008,0.108,2.314,0.326,3.431l-2.396-0.49c-0.327-0.953-0.926-1.742-1.742-2.777l-9.502-12.115h-0.054v2.832
	c0,11.271,0.599,10.809,4.166,11.38l0,0.816c-0.844,0-2.668-0.136-4.301-0.136c-1.552,0-3.349,0.136-4.166,0.136V122.152z"/>
<path fill="#772543" d="M195.031,122.152c1.144-0.19,2.995,0,2.995-2.641v-11.353c0-2.642-1.852-2.451-2.995-2.642v-0.816
	c1.144,0,2.995,0.137,4.574,0.137c1.606,0,3.457-0.137,4.601-0.137v0.816c-1.144,0.19-2.994,0-2.994,2.642v11.353
	c0,2.641,1.851,2.45,2.994,2.641v0.816c-1.144,0-2.994-0.136-4.601-0.136c-1.579,0-3.431,0.136-4.574,0.136V122.152z"/>
<path fill="#772543" d="M213.979,122.833c-0.136-1.47-0.707-2.586-1.17-3.894l-2.668-7.351c-1.688-4.683-1.553-6.071-4.52-6.071
	v-0.816c0.489,0,1.933,0.137,4.301,0.137c1.661,0,4.274-0.137,4.982-0.137v0.816c-1.497,0-3.021,0.082-3.021,1.226
	c0,0.789,0.708,2.505,1.524,4.737l2.641,7.241l3.104-7.868c0.708-1.796,1.144-2.831,1.144-4.083c0-1.063-1.77-1.253-2.804-1.253
	v-0.816c0.381,0,3.049,0.137,3.865,0.137c0.898,0,2.805-0.137,3.54-0.137v0.816c-1.308,0-2.151,0.518-4.003,4.874l-3.593,8.439
	c-0.926,2.205-1.28,3.021-1.308,4.492L213.979,122.833z"/>
<path fill="#772543" d="M226.339,122.152c1.144-0.19,2.994,0,2.994-2.641v-11.353c0-2.642-1.851-2.451-2.994-2.642v-0.816
	c0.571,0,1.334,0.027,2.123,0.055c0.817,0.054,1.661,0.081,2.45,0.081h6.834c3.104,0,3.349-0.218,4.002-0.816
	c0,2.015,0.163,4.084,0.381,6.071h-0.979c-0.735-2.396-1.089-4.22-5.581-4.22c-2.56,0-3.05,0.081-3.05,2.287v4.628h1.307
	c3.54,0,3.566-0.898,4.002-2.968h0.817c0,0.463-0.137,2.069-0.137,3.485c0,1.66,0.137,2.776,0.137,3.647h-0.817
	c-0.354-1.987-0.462-3.131-4.002-3.131h-1.307v5.69c0,2.123,1.879,2.287,3.05,2.287c4.002,0,5.199-1.171,6.533-5.391h0.98
	c-0.3,2.341-0.681,4.71-0.926,6.97c-0.381-0.218-0.599-0.354-1.252-0.436c-0.653-0.082-1.77-0.109-4.029-0.109h-5.963
	c-0.789,0-1.633,0.027-2.45,0.055c-0.789,0.055-1.552,0.081-2.123,0.081V122.152z"/>
<path fill="#772543" d="M250.759,108.159c0-2.56,1.008-2.56,2.995-2.56c1.824,0,2.858,1.062,2.858,3.076
	c0,2.886-1.633,4.438-4.981,4.438h-0.872V108.159z M244.58,122.969c1.144,0,2.995-0.136,4.574-0.136
	c1.605,0,3.457,0.136,4.601,0.136v-0.816c-1.144-0.19-2.995,0-2.995-2.641v-5.363c0.898,0.027,2.233,0,2.642,0.571
	c2.45,3.431,3.021,5.5,5.526,7.297c1.171,0.844,3.921,0.952,5.418,0.952v-0.816c-2.913-0.789-4.574-3.594-8.386-8.821
	c2.695-0.681,4.247-2.45,4.247-4.655c0-2.478-1.442-3.975-5.009-3.975c-1.606,0-3.839,0.137-6.044,0.137
	c-1.579,0-3.431-0.137-4.574-0.137v0.816c1.144,0.19,2.995,0,2.995,2.642v11.353c0,2.641-1.852,2.45-2.995,2.641V122.969z"/>
<path fill="#772543" d="M276.977,109.847c-0.762-1.824-1.579-4.302-4.71-4.302c-2.015,0-3.021,1.307-3.021,2.587
	c0,4.328,9.855,3.212,9.855,9.664c0,3.24-2.287,5.527-6.071,5.527c-2.314,0-3.702-0.844-5.391-0.844
	c-0.49,0-0.898,0.136-1.389,0.489c0-0.707,0.137-1.552,0.137-2.341c0-1.035-0.137-3.648-0.137-4.302h0.898
	c0.817,2.505,1.524,5.799,5.718,5.799c2.178,0,3.621-1.389,3.621-3.131c0-4.683-9.855-3.321-9.855-9.665
	c0-3.267,2.478-4.981,5.254-4.981c1.008,0,1.77,0.136,2.505,0.299c0.708,0.137,1.361,0.3,2.097,0.3c0.408,0,0.844-0.272,1.143-0.572
	v1.525c0,0.436,0.109,2.26,0.245,3.947H276.977z"/>
<path fill="#772543" d="M280.761,122.152c1.144-0.19,2.995,0,2.995-2.641v-11.353c0-2.642-1.852-2.451-2.995-2.642v-0.816
	c1.144,0,2.995,0.137,4.574,0.137c1.606,0,3.458-0.137,4.602-0.137v0.816c-1.144,0.19-2.995,0-2.995,2.642v11.353
	c0,2.641,1.852,2.45,2.995,2.641l-0.001,0.816c-1.143,0-2.994-0.136-4.601-0.136c-1.579,0-3.431,0.136-4.574,0.136V122.152z"/>
<path fill="#772543" d="M295.354,122.152c1.361-0.19,3.539,0,3.539-2.641v-11.353c0-2.232-0.163-2.287-1.633-2.287
	c-3.758,0-4.111,2.178-4.819,4.438h-1.034c0.272-2.26,0.436-4.057,0.436-6.289c0.979,0.816,3.594,0.816,8.63,0.816
	c5.037,0,7.678,0,8.658-0.816c0,2.232,0.163,4.029,0.436,6.289h-1.035c-0.681-2.26-1.062-4.438-4.818-4.438
	c-1.471,0-1.634,0.055-1.634,2.287v11.353c0,2.641,2.178,2.45,3.539,2.641v0.816c-1.252,0-3.376-0.136-5.146-0.136
	c-1.742,0-3.812,0.136-5.118,0.136V122.152z"/>
<path fill="#772543" d="M315.01,122.152c1.252-0.19,3.403,0,3.403-2.641v-3.186c0-0.898-0.545-1.987-1.416-3.158l-2.342-4.029
	c-1.524-2.613-1.688-3.621-3.865-3.621v-0.816c0.599,0,2.123,0.137,4.165,0.137c2.314,0,3.403-0.137,4.329-0.137v0.816
	c-1.443,0-2.396,0.137-2.396,0.871c0,0.845,0.681,1.688,1.253,2.669l2.913,5.091l2.695-5.064c0.408-0.762,1.034-1.605,1.034-2.559
	c0-0.898-1.442-0.98-2.858-1.008v-0.816c0.463,0,2.069,0.137,4.247,0.137c1.307,0,2.423-0.137,3.267-0.137v0.816
	c-1.742,0.327-2.313,0.653-3.92,3.321l-2.314,3.866c-1.252,1.797-1.606,2.369-1.606,3.621v3.186c0,2.641,2.042,2.45,3.403,2.641
	v0.816c-1.252,0-3.239-0.136-5.009-0.136c-1.661,0-3.785,0.136-4.982,0.136V122.152z"/>
<polygon fill="#772543" points="41.506,50.768 39.208,45.896 69.202,45.896 66.983,50.79 "/>
<path fill="#772543" d="M62.57,41.805c2.652-1.202,6.975-3.4,8.538-9.723c1.563-6.322-0.38-9.859-1.907-11.969
	c-1.524-2.107-8.845-7.727-9.382-12.283c0,0-0.694,3.881-2.419,5.994c-1.725,2.113-1.53,4.033-0.162,5.186
	c1.369,1.15,4.224,2.508,5.662,5.096c4.917,8.842-4.68,17.264-7.298,18.088C52.984,43.016,59.375,43.252,62.57,41.805z"/>
<path fill="#772543" d="M53.592,40.625c0.313,0.039,11.438-8.702-1.604-18.977c-0.805-0.635,1.582,5.215-1.122,6.482
	c-1.305,0.611-1.543,3.328-1.426,4.664C49.622,34.859,53.278,40.587,53.592,40.625z"/>
<path fill="#772543" d="M51.951,42.689c-0.209,0.418-4.521,0.615-8.58-2.512c-14.442-11.127,2.25-20.034,2.651-24.346
	c0.118-1.266,4.275,8.498,0.209,10.742C38.588,30.794,52.16,42.271,51.951,42.689z"/>
<path fill="#772543" d="M53.028,19.068c0,0-4.913-4.547-4.229-7.22c0.858-3.361,2.855-3.291,3.958-7.001
	c0.242-0.818,0.428,2.002,1.715,4.861c1.287,2.86-1.063,2.769-1.777,4.197C51.98,15.337,53.028,19.068,53.028,19.068z"/>
<g>
	<path fill="#772543" d="M26.682,59.343v7.032c2.759,3.935,5.942,8.478,9.141,13.048V59.327c0.323-0.655,1.011-0.637,1.438-0.659
		c0.234-0.013,1.193,0,1.193,0v-4.161H23.753v4.2h0.948C24.701,58.707,26.097,58.735,26.682,59.343z"/>
	<path fill="#772543" d="M70.322,58.668c0.427,0.022,1.114,0.004,1.438,0.659v19.97c3.203-4.577,6.389-9.123,9.143-13.05v-6.904
		c0.583-0.607,1.979-0.636,1.979-0.636h0.947v-4.2H69.128v4.161C69.128,58.668,70.088,58.655,70.322,58.668z"/>
	<path fill="#772543" d="M26.682,94.883v7.405c0,0-0.75,13.813,17.117,17.191C38.665,112.032,32.488,103.173,26.682,94.883z"/>
	<path fill="#772543" d="M80.902,95.025c-5.794,8.245-11.946,17.042-17.064,24.443c17.812-3.396,17.064-17.181,17.064-17.181V95.025
		z"/>
	<g>
		<path fill="#772543" d="M88.496,54.529v4.161c0,0,0.958-0.013,1.193,0c0.427,0.022,1.08,0.698-0.542,2.79
			c-0.074,0.097-32.268,45.941-35.437,50.771c-3.168-4.829-35.364-50.674-35.438-50.771c-1.619-2.092-0.967-2.768-0.54-2.79
			c0.234-0.013,1.194,0,1.194,0v-4.161H4.226v5.288h0.947c0,0,1.396,0.03,1.981,0.636c0.333,0.347,37.923,53.529,46.549,66.794
			v0.024c0.002-0.004,0.005-0.009,0.008-0.012c0.003,0.003,0.005,0.008,0.008,0.012v-0.024
			c8.626-13.265,46.215-66.447,46.549-66.794c0.585-0.605,1.979-0.636,1.979-0.636h0.949v-5.288H88.496z"/>
	</g>
</g>
<circle fill="#772543" cx="53.854" cy="66.801" r="1.8"/>
<path fill="#772543" d="M64.339,54.533h-21.24v35.338l10.57,15.35l10.738-15.35L64.339,54.533z M53.774,98.469l-5.234-8.609h10.304
	L53.774,98.469z M61.182,68.958h-4.019c-0.307,0.475-0.711,0.876-1.186,1.182V83.98h-4.315V70.124
	c-0.463-0.303-0.855-0.701-1.157-1.166h-4.083v-4.315h4.09c0.3-0.459,0.69-0.852,1.149-1.153V60.4h4.315v3.073
	c0.471,0.303,0.872,0.7,1.178,1.169h4.026V68.958z"/>
</svg>
