<?xml version="1.0" encoding="utf-8"?>
<!-- Generator: Adobe Illustrator 21.0.0, SVG Export Plug-In . SVG Version: 6.00 Build 0)  -->
<svg version="1.1" id="Layer_1" xmlns="http://www.w3.org/2000/svg" xmlns:xlink="http://www.w3.org/1999/xlink" x="0px" y="0px"
	 viewBox="0 0 288 72" style="enable-background:new 0 0 288 72;" xml:space="preserve">
<style type="text/css">
	.st0{fill:#FFFFFF;}
</style>
<g>
	<g>
		<g>
			<path class="st0" d="M39.5,8.7C24.2,8.6,12.4,20.9,12,35.3c-0.4,15.3,11.9,28,27.3,28c15.1,0,27.3-12.2,27.3-27.3
				C66.7,21,54.5,8.7,39.5,8.7z M46,29h4v2.3L46,37V29z M37.6,17.2c0-0.4,1.4,2.9,0.1,3.6c-1.6,0.9-0.4,2.8,0.7,4.1
				c-0.2-0.5-0.4-1.1-0.4-1.4c0-0.4,0.2-1.2,0.6-1.4c0.9-0.3,0.3-2.2,0.6-2c2.1,2.1,1.7,3.8,1,4.8h0.1c1.1-1.1,2.1-3.1,1-5
				c-0.5-0.9-1.4-1.3-1.9-1.7c-0.5-0.4-0.5-1,0.1-1.7c0.6-0.7,0.8-2,0.8-2c0.2,1.5,2.7,3.4,3.2,4.1c0.5,0.7,1.2,1.9,0.6,4
				c-0.3,1.1-0.8,1.8-1.3,2.3h3.1l-1,2.1l-11,0l-1-2.1h3.4C32.3,21.5,37.5,18.6,37.6,17.2z M44,40.2l-4.6,6.4l-4.6-6.3V29h9.2
				L44,40.2z M28.8,29h4v8l-4-5.7V29z M28.8,46.9v-3.1c2.5,3.6,5.2,7.4,7.4,10.6C28.4,52.9,28.8,46.9,28.8,46.9z M42.5,54.4
				c2.2-3.2,4.9-7,7.4-10.6v3.1C49.9,46.9,50.3,52.9,42.5,54.4z M39.3,56.2L20.5,29H25l14.4,20.6L53.7,29h4.5L39.3,56.2z"/>
			<g>
				<polygon class="st0" points="39.4,44.1 41.1,41.1 37.5,41.1 				"/>
				<path class="st0" d="M40.1,31.9v-1.1h-1.5v1.1c-0.2,0.1-0.3,0.2-0.4,0.4h-1.4v1.5h1.4c0.1,0.2,0.2,0.3,0.4,0.4V39h1.5v-4.8
					c0.2-0.1,0.3-0.2,0.4-0.4H42v-1.5h-1.4C40.4,32.1,40.3,32,40.1,31.9z M39.4,33.7c-0.3,0-0.6-0.3-0.6-0.6c0-0.3,0.3-0.6,0.6-0.6
					c0.3,0,0.6,0.3,0.6,0.6C40,33.4,39.7,33.7,39.4,33.7z"/>
			</g>
		</g>
	</g>
	<g>
		<path class="st0" d="M86.9,29.1L81.1,43h-2.3L73,29.1h4.2l2,5.1l1,3l0.9-3l1.8-5.1H86.9z"/>
		<path class="st0" d="M89.5,29.1h3.8V43h-3.8V29.1z"/>
		<path class="st0" d="M108.9,32.4h-4.5V43h-3.8V32.4h-4.5v-3.3h12.8V32.4z"/>
		<path class="st0" d="M121.8,39.7V43h-10.1V29.1h10.1v3.3h-6.3v2h5.6v3.2h-5.6v2.2H121.8z"/>
		<path class="st0" d="M130.2,39.4h-1.6V43h-3.7V29.1h5.8c3.6,0,5.7,2.3,5.7,5.3c0,1.9-1,3.5-2.6,4.3l3,4.3h-4.3L130.2,39.4z
			 M128.6,36.3h1.8c1.4,0,2.2-0.9,2.2-2c0-1.2-0.8-2.1-2.3-2.1h-1.8V36.3z"/>
		<path class="st0" d="M151.1,39c0,2.5-1.6,4-5.6,4h-5.9V29.1h5.7c3.7,0,5.3,1.6,5.3,3.8c0,1.3-0.9,2.4-2.2,2.8
			C150.4,36.1,151.1,37.5,151.1,39z M145.2,31.9h-2v2.7h2c1.2,0,1.8-0.5,1.8-1.4C147,32.4,146.4,31.9,145.2,31.9z M147.5,38.7
			c0-0.9-0.6-1.4-1.9-1.4h-2.3v2.8h2.3C146.8,40.1,147.5,39.6,147.5,38.7z"/>
		<path class="st0" d="M153.1,36c0-4.1,3.2-7.2,7.5-7.2c4.3,0,7.4,3,7.4,7.2c0,4.2-3.2,7.3-7.4,7.3C156.2,43.2,153.1,40.1,153.1,36z
			 M164.1,36c0-2.2-1.5-3.8-3.6-3.8c-2.1,0-3.6,1.6-3.6,3.8c0,2.2,1.5,3.8,3.6,3.8C162.6,39.8,164.1,38.2,164.1,36z"/>
	</g>
	<g>
		<path class="st0" d="M171.4,37.7v-8.2c0-0.1,0.1-0.2,0.2-0.2h0.9c0.1,0,0.2,0.1,0.2,0.2v8.2c0,2.6,1.3,4.1,3.5,4.1
			c2.2,0,3.5-1.5,3.5-4.1v-8.2c0-0.1,0.1-0.2,0.2-0.2h0.9c0.1,0,0.2,0.1,0.2,0.2v8.2c0,3.4-1.9,5.4-4.9,5.4
			C173.3,43,171.4,41,171.4,37.7z"/>
		<path class="st0" d="M185,42.6V29.5c0-0.1,0.1-0.2,0.2-0.2h0.8c0.2,0,0.2,0.1,0.3,0.2l6.4,9.7l0.6,1.1V29.5c0-0.1,0.1-0.2,0.2-0.2
			h1c0.1,0,0.2,0.1,0.2,0.2v13.1c0,0.1-0.1,0.2-0.2,0.2h-0.8c-0.2,0-0.3-0.1-0.3-0.2l-6.4-9.8l-0.7-1.1v10.9c0,0.1-0.1,0.2-0.2,0.2
			h-0.9C185,42.8,185,42.7,185,42.6z"/>
		<path class="st0" d="M198.7,42.6V29.5c0-0.1,0.1-0.2,0.2-0.2h0.9c0.1,0,0.2,0.1,0.2,0.2v13.1c0,0.1-0.1,0.2-0.2,0.2h-0.9
			C198.8,42.8,198.7,42.7,198.7,42.6z"/>
		<path class="st0" d="M214,29.5l-5,13.1c0,0.1-0.1,0.2-0.3,0.2h-0.8c-0.2,0-0.2-0.1-0.3-0.2l-5-13.1c0-0.1,0-0.1,0-0.2
			c0,0,0.1,0,0.2,0h1.1c0.1,0,0.2,0.1,0.2,0.2L208,40l0.3,1l0.3-1l3.9-10.5c0-0.1,0.1-0.2,0.2-0.2h1.1c0.1,0,0.1,0,0.2,0.1
			C214,29.3,214,29.4,214,29.5z"/>
		<path class="st0" d="M217.8,30.5V35h5.4c0.1,0,0.2,0.1,0.2,0.2v0.8c0,0.1-0.1,0.2-0.2,0.2h-5.4v5.3h6.4c0.1,0,0.2,0.1,0.2,0.2v0.8
			c0,0.1-0.1,0.2-0.2,0.2h-7.6c-0.1,0-0.2-0.1-0.2-0.2V29.5c0-0.1,0.1-0.2,0.2-0.2h7.6c0.1,0,0.2,0.1,0.2,0.2v0.8
			c0,0.2-0.1,0.2-0.2,0.2H217.8z"/>
		<path class="st0" d="M236.4,42.8h-1.1c-0.1,0-0.2-0.1-0.2-0.2l-2.5-5.3c-0.2-0.4-0.3-0.5-0.6-0.5h-3.1v5.7c0,0.1-0.1,0.2-0.2,0.2
			h-0.9c-0.1,0-0.2-0.1-0.2-0.2V29.5c0-0.1,0.1-0.2,0.2-0.2h4.4c2.5,0,4.2,1.5,4.2,3.8c0,1.9-1,3.2-2.7,3.7c0.2,0.1,0.3,0.3,0.4,0.5
			l2.5,5.4C236.6,42.7,236.6,42.8,236.4,42.8z M232,35.7c1.7,0,2.8-1,2.8-2.6c0-1.6-1.1-2.6-2.8-2.6h-3.2v5.2H232z"/>
		<path class="st0" d="M238.5,39.2c0-0.2,0.1-0.2,0.2-0.2h1c0.1,0,0.2,0.1,0.2,0.2c0.1,0.7,0.4,1.2,0.8,1.6c0.6,0.7,1.6,1,2.6,1
			c1.7,0,2.9-0.9,2.9-2.4c0-1.6-1.5-2.3-3.3-3c-1.1-0.4-2.2-0.8-2.9-1.5c-0.6-0.5-1-1.3-1-2.3c0-2.2,1.7-3.5,4-3.5
			c2.4,0,4.1,1.4,4.3,3.8c0,0.1,0,0.2-0.2,0.2h-1c-0.1,0-0.2-0.1-0.2-0.2c-0.1-0.9-0.4-1.5-1-2c-0.5-0.4-1.1-0.6-1.9-0.6
			c-1.5,0-2.6,0.9-2.6,2.2c0,1.6,1.5,2.1,3,2.7c2,0.7,4.1,1.5,4.1,4.1c0,2.3-1.7,3.7-4.3,3.7C240.8,43,238.8,41.6,238.5,39.2z"/>
		<path class="st0" d="M250.9,42.6V29.5c0-0.1,0.1-0.2,0.2-0.2h0.9c0.1,0,0.2,0.1,0.2,0.2v13.1c0,0.1-0.1,0.2-0.2,0.2h-0.9
			C251,42.8,250.9,42.7,250.9,42.6z"/>
		<path class="st0" d="M264.5,29.5v0.8c0,0.2-0.1,0.2-0.2,0.2h-4v12.1c0,0.1-0.1,0.2-0.2,0.2h-0.9c-0.2,0-0.2-0.1-0.2-0.2V30.5H255
			c-0.1,0-0.2-0.1-0.2-0.2v-0.8c0-0.1,0.1-0.2,0.2-0.2h9.3C264.4,29.3,264.5,29.3,264.5,29.5z"/>
		<path class="st0" d="M276.3,29.5l-4.7,7.7v5.4c0,0.1-0.1,0.2-0.2,0.2h-0.9c-0.1,0-0.2-0.1-0.2-0.2v-5.4l-4.7-7.7
			c-0.1-0.2,0.1-0.2,0.2-0.2h1.1c0.1,0,0.2,0.1,0.3,0.2l3.4,5.5l0.4,0.9l0.4-0.9l3.4-5.5c0.1-0.1,0.2-0.2,0.3-0.2h1.1
			C276.3,29.3,276.4,29.3,276.3,29.5z"/>
	</g>
</g>
</svg>
