<?xml version="1.0" encoding="utf-8"?>
<!-- Generator: Adobe Illustrator 16.0.0, SVG Export Plug-In . SVG Version: 6.00 Build 0)  -->
<!DOCTYPE svg PUBLIC "-//W3C//DTD SVG 1.1//EN" "http://www.w3.org/Graphics/SVG/1.1/DTD/svg11.dtd">
<svg version="1.1" id="Layer_1" xmlns="http://www.w3.org/2000/svg" xmlns:xlink="http://www.w3.org/1999/xlink" x="0px" y="0px"
	 width="154.794px" height="152.055px" viewBox="0 0 154.794 152.055" enable-background="new 0 0 154.794 152.055"
	 xml:space="preserve">
<g>
	<defs>
		<rect id="SVGID_1_" x="6.101" y="6.285" width="139.92" height="139.92"/>
	</defs>
	<clipPath id="SVGID_2_">
		<use xlink:href="#SVGID_1_"  overflow="visible"/>
	</clipPath>
	<path clip-path="url(#SVGID_2_)" fill="#A51D37" d="M76.443,9.541L76.443,9.541C39.024,9.467,10.232,39.352,9.406,74.583
		c-0.875,37.393,29.133,68.322,66.697,68.322c36.713,0.023,66.625-29.861,66.625-66.622C142.75,39.571,112.938,9.589,76.443,9.541
		 M92.212,59.275L92.212,59.275h9.67v5.686l-9.67,13.8V59.275z M71.899,30.411L71.899,30.411c0.097-1.045,3.523,6.998,0.17,8.844
		c-4.034,2.211-0.923,6.876,1.822,10.035c-0.559-1.288-1.045-2.673-1.021-3.401c0.024-1.021,0.438-3.037,1.482-3.377
		c2.139-0.705,0.826-5.321,1.385-4.762c5.249,5.175,4.252,9.257,2.502,11.735h0.219c2.624-2.818,5.151-7.459,2.503-12.27
		c-1.19-2.114-3.548-3.231-4.666-4.179c-1.142-0.948-1.288-2.527,0.122-4.276c1.434-1.725,1.992-4.932,1.992-4.932
		c0.438,3.766,6.464,8.382,7.727,10.107c1.264,1.75,2.843,4.665,1.556,9.864c-0.656,2.673-1.92,4.446-3.28,5.686h7.459l-2.332,5.151
		L62.618,54.61l-2.406-5.126h8.31C58.803,40.786,71.583,33.837,71.899,30.411 M87.352,86.584L87.352,86.584l-11.298,15.551
		L64.853,86.707V59.275H87.28L87.352,86.584z M50.226,59.275L50.226,59.275h9.67v19.486l-9.67-13.8V59.275z M50.25,102.887
		L50.25,102.887v-7.652c6.123,8.697,12.61,17.979,18.004,25.803C49.448,117.442,50.25,102.887,50.25,102.887 M83.854,121.038
		L83.854,121.038c5.418-7.824,11.905-17.105,18.028-25.803v7.652C101.882,102.887,102.66,117.442,83.854,121.038 M76.054,125.411
		L76.054,125.411L30.059,59.275h10.934l35.062,50.293l35.086-50.293h10.934L76.054,125.411z"/>
	<polygon clip-path="url(#SVGID_2_)" fill="#A51D37" points="76.127,95.963 76.127,95.963 80.452,88.625 71.681,88.625 	"/>
	<path clip-path="url(#SVGID_2_)" fill="#A51D37" d="M77.998,66.151L77.998,66.151v-2.6h-3.668v2.624
		c-0.389,0.267-0.705,0.583-0.972,0.972h-3.475v3.693h3.475c0.243,0.389,0.583,0.729,0.972,0.972v11.808h3.668V71.837
		c0.413-0.267,0.754-0.607,1.021-0.996h3.427v-3.693h-3.427C78.751,66.759,78.411,66.418,77.998,66.151 M76.2,70.525L76.2,70.525
		c-0.85,0-1.53-0.681-1.53-1.531c0-0.851,0.68-1.531,1.53-1.531c0.851,0,1.531,0.68,1.531,1.531
		C77.731,69.844,77.05,70.525,76.2,70.525"/>
</g>
</svg>
