<!-- Generated by IcoMoon.io -->
<svg version="1.1" xmlns="http://www.w3.org/2000/svg" width="32" height="32" viewBox="0 0 32 32">
<path fill="#fff" d="M31.982 13.321c-0.012-0.643-0.063-1.456-0.152-2.437s-0.218-1.86-0.384-2.634c-0.191-0.869-0.604-1.601-1.241-2.196s-1.378-0.941-2.223-1.036c-2.643-0.297-6.637-0.446-11.982-0.446s-9.339 0.149-11.982 0.446c-0.845 0.095-1.584 0.441-2.214 1.036s-1.042 1.327-1.232 2.196c-0.178 0.774-0.312 1.652-0.402 2.634s-0.14 1.794-0.152 2.437c-0.012 0.643-0.018 1.536-0.018 2.679s0.006 2.036 0.018 2.679c0.012 0.643 0.062 1.456 0.152 2.437s0.217 1.86 0.384 2.634c0.191 0.869 0.604 1.601 1.241 2.196s1.378 0.94 2.223 1.036c2.643 0.298 6.637 0.447 11.982 0.447s9.339-0.149 11.982-0.447c0.846-0.095 1.583-0.441 2.214-1.036s1.041-1.328 1.232-2.196c0.178-0.774 0.312-1.652 0.402-2.634s0.14-1.794 0.152-2.437c0.012-0.643 0.018-1.536 0.018-2.679s-0.006-2.036-0.018-2.679zM22.321 16.964l-9.143 5.714c-0.167 0.119-0.369 0.178-0.607 0.178-0.178 0-0.363-0.048-0.553-0.143-0.393-0.214-0.589-0.548-0.589-1v-11.428c0-0.452 0.196-0.786 0.589-1 0.405-0.215 0.792-0.203 1.161 0.036l9.143 5.714c0.357 0.202 0.535 0.524 0.535 0.964s-0.179 0.762-0.536 0.964z"></path>
</svg>
